<svg width="22" height="20" viewBox="0 0 22 20" fill="none" xmlns="http://www.w3.org/2000/svg">
    <path d="M10.9999 4.95834C11.6077 4.95834 12.1906 5.19979 12.6204 5.62956C13.0501 6.05933 13.2916 6.64222 13.2916 7.25001C13.2916 7.55096 13.2323 7.84896 13.1171 8.12699C13.002 8.40503 12.8332 8.65766 12.6204 8.87046C12.4076 9.08326 12.1549 9.25207 11.8769 9.36723C11.5989 9.4824 11.3009 9.54168 10.9999 9.54168C10.3921 9.54168 9.80924 9.30023 9.37947 8.87046C8.94969 8.44069 8.70825 7.8578 8.70825 7.25001C8.70825 6.64222 8.94969 6.05933 9.37947 5.62956C9.80924 5.19979 10.3921 4.95834 10.9999 4.95834ZM10.9999 0.833344C12.7017 0.833344 14.3338 1.50938 15.5372 2.71274C16.7405 3.9161 17.4166 5.5482 17.4166 7.25001C17.4166 12.0625 10.9999 19.1667 10.9999 19.1667C10.9999 19.1667 4.58325 12.0625 4.58325 7.25001C4.58325 5.5482 5.25929 3.9161 6.46265 2.71274C7.66601 1.50938 9.29811 0.833344 10.9999 0.833344ZM10.9999 2.66668C9.78434 2.66668 8.61855 3.14956 7.75901 4.0091C6.89947 4.86865 6.41659 6.03443 6.41659 7.25001C6.41659 8.16668 6.41659 10 10.9999 16.1508C15.5833 10 15.5833 8.16668 15.5833 7.25001C15.5833 6.03443 15.1004 4.86865 14.2408 4.0091C13.3813 3.14956 12.2155 2.66668 10.9999 2.66668Z" fill="white"></path>
</svg>